<svg width="70" height="70" viewBox="0 0 70 70" fill="none" xmlns="http://www.w3.org/2000/svg">
<g clip-path="url(#clip0_205_4754)">
<path d="M35 0C15.6856 0 0 15.6856 0 35C0 54.3144 15.6856 70 35 70C54.3144 70 70 54.3144 70 35C70 15.6856 54.3144 0 35 0ZM35 2.6264C52.8584 2.6264 67.3764 17.1416 67.3764 35C67.3764 52.8584 52.8584 67.2868 35 67.2868C30.7588 67.2912 26.5584 66.4591 22.6391 64.8381C18.7199 63.2171 15.1589 60.8391 12.1599 57.8401C9.16094 54.8411 6.78288 51.2801 5.16188 47.3609C3.54088 43.4416 2.70878 39.2412 2.7132 35C2.7132 17.1416 17.1416 2.6236 35 2.6236V2.6264ZM29.5736 16.8C29.0556 16.828 28.4228 16.898 27.8264 17.0632C27.2272 17.2256 26.6112 17.4832 26.0736 18.0236C25.5388 18.5668 25.2 19.4404 25.2 20.3V30.8C25.172 30.8728 25.102 30.9456 25.0236 31.0632C24.7544 31.4586 24.4628 31.8381 24.15 32.2C23.8196 32.5836 23.4892 32.956 23.1868 33.3368C23.0356 33.5272 22.8816 33.7204 22.75 33.95C22.6184 34.1796 22.4868 34.3672 22.4868 34.9132C22.4868 35.4648 22.6884 35.8232 22.8368 36.05C22.9852 36.2768 23.1168 36.4056 23.2736 36.5764C23.5872 36.9152 23.9176 37.2876 24.2368 37.6236C24.8724 38.3012 25.2 38.9928 25.2 39.2V49.7C25.2 50.6324 25.6536 51.534 26.25 52.0632C26.8464 52.5924 27.5548 52.8808 28.1764 53.0236C29.4168 53.3148 30.6404 53.2 30.8 53.2V50.4C30.2792 50.4 29.4756 50.4728 28.7868 50.3132C28.5304 50.25 28.2912 50.1304 28.0868 49.9632C28.0028 49.8904 28 49.924 28 49.7V39.2C28 37.576 27.006 36.5064 26.25 35.7C25.9476 35.378 25.76 35.1316 25.55 34.9132C25.76 34.6556 25.942 34.3084 26.25 33.95C26.6056 33.5356 26.978 33.1324 27.3 32.6368C27.622 32.144 28 31.6232 28 30.8V20.3C28 20.0648 28.0364 20.09 28.0868 20.0368C28.2391 19.9094 28.4195 19.8201 28.6132 19.7764C29.2096 19.614 30.1 19.6 30.8 19.6V16.8C30.492 16.8 30.0944 16.772 29.5736 16.8ZM42 16.8V19.6C42.6972 19.6 43.5904 19.6 44.1868 19.7764C44.3805 19.8201 44.5609 19.9094 44.7132 20.0368C44.7636 20.0928 44.8 20.0704 44.8 20.3V30.8C44.8 32.4184 45.7996 33.404 46.55 34.2132C46.8356 34.5212 47.0428 34.6892 47.25 34.9132C47.04 35.1176 46.8356 35.322 46.55 35.6132C45.7716 36.4084 44.7132 37.5508 44.7132 39.2V49.7C44.7132 49.9268 44.7076 49.8876 44.6264 49.9632C44.5424 50.036 44.3548 50.232 44.0104 50.3132C43.3244 50.4728 42.5208 50.4 42 50.4V53.2C42.1596 53.2 43.3832 53.312 44.6264 53.0236C45.2452 52.878 45.9536 52.5924 46.55 52.0632C47.1464 51.5312 47.5132 50.6352 47.5132 49.7V39.2C47.5132 38.9564 47.9164 38.2816 48.5632 37.6236C48.8852 37.296 49.2072 36.9964 49.5236 36.6632C49.686 36.4952 49.896 36.2768 50.05 36.05C50.204 35.8232 50.4 35.5628 50.4 35C50.4 34.4428 50.1956 34.1768 50.05 33.95C49.9202 33.7348 49.7742 33.5298 49.6132 33.3368C49.2996 32.984 48.9748 32.6368 48.65 32.2868C48.2318 31.8431 47.8783 31.3426 47.6 30.8V20.3C47.6 19.4404 47.264 18.564 46.7236 18.0236C46.2377 17.5513 45.633 17.2194 44.9736 17.0632C43.7808 16.7356 42.616 16.8 42 16.8Z" fill="white"/>
</g>
<defs>
<clipPath id="clip0_205_4754">
<rect width="70" height="70" fill="white"/>
</clipPath>
</defs>
</svg>
