<svg width="964" height="3386" viewBox="0 0 964 3386" fill="none" xmlns="http://www.w3.org/2000/svg">
<rect x="0.5" y="0.5" width="962.513" height="3384.67" rx="4.5" stroke="#9747FF" stroke-dasharray="10 5"/>
<circle cx="611.943" cy="64.9051" r="32.241" transform="rotate(35.0154 611.943 64.9051)" fill="url(#paint0_linear_205_4786)"/>
<circle cx="869.362" cy="525.327" r="15.6807" transform="rotate(35.0154 869.362 525.327)" fill="url(#paint1_linear_205_4786)"/>
<circle cx="514.103" cy="624.066" r="14.4069" transform="rotate(35.0154 514.103 624.066)" fill="url(#paint2_linear_205_4786)"/>
<circle cx="69.5564" cy="1096.52" r="35.5806" transform="rotate(35.0154 69.5564 1096.52)" fill="url(#paint3_linear_205_4786)"/>
<circle cx="609.455" cy="1652.42" r="21.8395" transform="rotate(35.0154 609.455 1652.42)" fill="url(#paint4_linear_205_4786)"/>
<circle cx="916.39" cy="1189.12" r="19.4734" transform="rotate(35.0154 916.39 1189.12)" fill="url(#paint5_linear_205_4786)"/>
<circle cx="611.943" cy="2458.74" r="32.241" transform="rotate(35.0154 611.943 2458.74)" fill="url(#paint6_linear_205_4786)"/>
<circle cx="229.362" cy="2208.16" r="15.6807" transform="rotate(35.0154 229.362 2208.16)" fill="url(#paint7_linear_205_4786)"/>
<circle cx="514.103" cy="1866.9" r="14.4069" transform="rotate(35.0154 514.103 1866.9)" fill="url(#paint8_linear_205_4786)"/>
<circle cx="69.5564" cy="2409.36" r="35.5806" transform="rotate(35.0154 69.5564 2409.36)" fill="url(#paint9_linear_205_4786)"/>
<circle cx="209.455" cy="3335.25" r="21.8395" transform="rotate(35.0154 209.455 3335.25)" fill="url(#paint10_linear_205_4786)"/>
<circle cx="254.39" cy="2871.96" r="19.4734" transform="rotate(35.0154 254.39 2871.96)" fill="url(#paint11_linear_205_4786)"/>
<defs>
<linearGradient id="paint0_linear_205_4786" x1="644.184" y1="32.6641" x2="579.702" y2="97.1462" gradientUnits="userSpaceOnUse">
<stop stop-color="#FFEF5E"/>
<stop offset="1" stop-color="#F7936F"/>
</linearGradient>
<linearGradient id="paint1_linear_205_4786" x1="885.043" y1="509.647" x2="853.682" y2="541.008" gradientUnits="userSpaceOnUse">
<stop stop-color="#F76680"/>
<stop offset="1" stop-color="#57007B"/>
</linearGradient>
<linearGradient id="paint2_linear_205_4786" x1="528.51" y1="609.659" x2="499.696" y2="638.473" gradientUnits="userSpaceOnUse">
<stop stop-color="#F76680"/>
<stop offset="1" stop-color="#57007B"/>
</linearGradient>
<linearGradient id="paint3_linear_205_4786" x1="105.137" y1="1060.94" x2="33.9759" y2="1132.1" gradientUnits="userSpaceOnUse">
<stop stop-color="#FFEF5E"/>
<stop offset="1" stop-color="#F7936F"/>
</linearGradient>
<linearGradient id="paint4_linear_205_4786" x1="631.294" y1="1630.58" x2="587.615" y2="1674.26" gradientUnits="userSpaceOnUse">
<stop stop-color="#FFEF5E"/>
<stop offset="1" stop-color="#F7936F"/>
</linearGradient>
<linearGradient id="paint5_linear_205_4786" x1="935.863" y1="1169.65" x2="896.917" y2="1208.6" gradientUnits="userSpaceOnUse">
<stop stop-color="#F76680"/>
<stop offset="1" stop-color="#57007B"/>
</linearGradient>
<linearGradient id="paint6_linear_205_4786" x1="644.184" y1="2426.5" x2="579.702" y2="2490.98" gradientUnits="userSpaceOnUse">
<stop stop-color="#FFEF5E"/>
<stop offset="1" stop-color="#F7936F"/>
</linearGradient>
<linearGradient id="paint7_linear_205_4786" x1="245.043" y1="2192.48" x2="213.682" y2="2223.84" gradientUnits="userSpaceOnUse">
<stop stop-color="#F76680"/>
<stop offset="1" stop-color="#57007B"/>
</linearGradient>
<linearGradient id="paint8_linear_205_4786" x1="528.51" y1="1852.49" x2="499.696" y2="1881.31" gradientUnits="userSpaceOnUse">
<stop stop-color="#F76680"/>
<stop offset="1" stop-color="#57007B"/>
</linearGradient>
<linearGradient id="paint9_linear_205_4786" x1="105.137" y1="2373.78" x2="33.9759" y2="2444.94" gradientUnits="userSpaceOnUse">
<stop stop-color="#FFEF5E"/>
<stop offset="1" stop-color="#F7936F"/>
</linearGradient>
<linearGradient id="paint10_linear_205_4786" x1="231.294" y1="3313.41" x2="187.615" y2="3357.09" gradientUnits="userSpaceOnUse">
<stop stop-color="#FFEF5E"/>
<stop offset="1" stop-color="#F7936F"/>
</linearGradient>
<linearGradient id="paint11_linear_205_4786" x1="273.863" y1="2852.49" x2="234.917" y2="2891.43" gradientUnits="userSpaceOnUse">
<stop stop-color="#F76680"/>
<stop offset="1" stop-color="#57007B"/>
</linearGradient>
</defs>
</svg>
