<svg width="70" height="70" viewBox="0 0 70 70" fill="none" xmlns="http://www.w3.org/2000/svg">
<path d="M25.1787 38.3037C26.9909 38.3037 28.46 36.8346 28.46 35.0225C28.46 33.2103 26.9909 31.7412 25.1787 31.7412C23.3665 31.7412 21.8975 33.2103 21.8975 35.0225C21.8975 36.8346 23.3665 38.3037 25.1787 38.3037Z" fill="white"/>
<path d="M35.0225 38.3037C36.8346 38.3037 38.3037 36.8346 38.3037 35.0225C38.3037 33.2103 36.8346 31.7412 35.0225 31.7412C33.2103 31.7412 31.7412 33.2103 31.7412 35.0225C31.7412 36.8346 33.2103 38.3037 35.0225 38.3037Z" fill="white"/>
<path d="M44.8662 38.3037C46.6784 38.3037 48.1475 36.8346 48.1475 35.0225C48.1475 33.2103 46.6784 31.7412 44.8662 31.7412C43.054 31.7412 41.585 33.2103 41.585 35.0225C41.585 36.8346 43.054 38.3037 44.8662 38.3037Z" fill="white"/>
<path d="M22.9689 53.5936C22.5379 53.5942 22.111 53.5095 21.7128 53.3446C21.3147 53.1797 20.953 52.9377 20.6486 52.6326L5.3361 37.3201C4.05463 36.0387 4.05463 33.9611 5.3361 32.6797L20.6486 17.3672C21.9301 16.0859 24.0075 16.0859 25.289 17.3672C26.5702 18.6486 26.5702 20.7262 25.289 22.0076L12.2967 34.9999L25.289 47.9921C26.5702 49.2734 26.5702 51.351 25.289 52.6325C24.9846 52.9376 24.623 53.1796 24.2248 53.3446C23.8267 53.5095 23.3998 53.5942 22.9689 53.5936ZM47.0314 53.5936C47.4623 53.5942 47.8892 53.5095 48.2874 53.3446C48.6856 53.1797 49.0472 52.9377 49.3516 52.6326L64.6641 37.3201C65.9456 36.0387 65.9456 33.9611 64.6641 32.6797L49.3516 17.3672C48.0701 16.0859 45.9927 16.0859 44.7112 17.3672C43.43 18.6486 43.43 20.7262 44.7112 22.0076L57.7035 34.9999L44.7112 47.9921C43.43 49.2734 43.43 51.351 44.7112 52.6325C45.0156 52.9376 45.3772 53.1796 45.7754 53.3446C46.1735 53.5095 46.6004 53.5942 47.0314 53.5936Z" fill="white"/>
</svg>
