<svg width="70" height="70" viewBox="0 0 70 70" fill="none" xmlns="http://www.w3.org/2000/svg">
<path d="M24.1502 34.9998L7.3502 18.5498C6.6502 17.8498 6.6502 16.7998 7.3502 16.0998L15.7502 7.6998C16.4502 6.9998 17.5002 6.9998 18.2002 7.6998L34.6502 24.1498" stroke="white" stroke-miterlimit="10"/>
<path d="M45.5 35L62.3 51.8C63 52.5 63 53.55 62.3 54.25L53.9 62.65C53.2 63.35 52.15 63.35 51.45 62.65L35 45.85" stroke="white" stroke-miterlimit="10"/>
<path d="M49.2012 60.4189L45.7364 56.9541L52.9137 49.7771L56.3784 53.2419L49.2012 60.4189Z" fill="white"/>
<path d="M42 53.0669L38.5352 49.602L42.2476 45.8898L45.7124 49.3546L42 53.0669Z" fill="white"/>
<path d="M20.5674 31.3848L17.1026 27.9199L24.2799 20.7429L27.7446 24.2078L20.5674 31.3848Z" fill="white"/>
<path d="M13.3643 24.5337L9.89949 21.0688L13.6119 17.3566L17.0766 20.8214L13.3643 24.5337Z" fill="white"/>
<path d="M49 10.15L51.1 8.05C52.5 6.65 54.6 6.65 56 8.05L61.95 14C63.35 15.4 63.35 17.5 61.95 18.9L59.85 21" stroke="white" stroke-miterlimit="10" stroke-linecap="round" stroke-linejoin="round"/>
<path d="M46.2588 13.2534L56.9006 23.8956L23.4892 57.3058L12.8474 46.6636L46.2588 13.2534Z" stroke="white" stroke-miterlimit="10" stroke-linecap="round" stroke-linejoin="round"/>
<path d="M15.4688 50.8984L49.6214 16.7446L53.0863 20.2093L18.9336 54.3632L15.4688 50.8984Z" fill="white"/>
<path d="M7.34961 62.6498L12.5996 46.5498L23.4496 57.3998L7.34961 62.6498Z" stroke="white" stroke-miterlimit="10" stroke-linecap="round" stroke-linejoin="round"/>
<path d="M9.09961 57.3999L7.34961 62.6499L12.5996 60.8999L9.09961 57.3999Z" fill="white"/>
<path d="M60.5496 20.3002L56.3496 24.1502L45.8496 13.6502L49.6996 9.4502" stroke="white" stroke-miterlimit="10" stroke-linecap="round" stroke-linejoin="round"/>
</svg>
