<svg width="30" height="23" viewBox="0 0 30 23" fill="none" xmlns="http://www.w3.org/2000/svg">
<path d="M9.27099 20.6608C6.72039 23.1839 2.40064 23.1738 1.19425 19.8111C0.958057 19.1527 0.769211 18.4758 0.630316 17.7851C0.0632085 14.9647 0.354269 12.0415 1.46669 9.38477C2.57911 6.72816 4.46293 4.45749 6.87993 2.85992C9.29696 1.26236 12.1386 0.409668 15.0455 0.409668C17.9524 0.409668 20.794 1.26236 23.2109 2.85992C25.628 4.45749 27.5118 6.72816 28.6242 9.38485C29.7366 12.0415 30.0276 14.9647 29.4606 17.7851C29.3217 18.4758 29.1328 19.1527 28.8966 19.8111C27.6902 23.1738 23.3705 23.1839 20.8199 20.6608L16.8826 16.766C16.5065 16.3939 16.5453 15.7802 16.6491 15.2642C16.7122 14.9504 16.6798 14.6252 16.556 14.3297C16.4322 14.0341 16.2227 13.7815 15.9538 13.6038C15.685 13.4261 15.3688 13.3312 15.0455 13.3312C14.7221 13.3312 14.406 13.4261 14.1371 13.6038C13.8681 13.7815 13.6586 14.0341 13.5348 14.3297C13.4111 14.6252 13.3787 14.9504 13.4418 15.2642C13.5456 15.7802 13.5844 16.3939 13.2082 16.766L9.27099 20.6608Z" fill="url(#paint0_linear_214_1085)"/>
<defs>
<linearGradient id="paint0_linear_214_1085" x1="28.4051" y1="7.67916" x2="2.317" y2="7.67916" gradientUnits="userSpaceOnUse">
<stop stop-color="#161490"/>
<stop offset="0.510417" stop-color="#7476ED"/>
<stop offset="1" stop-color="#E56F8C"/>
</linearGradient>
</defs>
</svg>
