<svg width="70" height="70" viewBox="0 0 70 70" fill="none" xmlns="http://www.w3.org/2000/svg">
<path d="M55.7812 60.1563C55.5625 60.1563 55.125 60.1563 54.9062 59.9375L44.1875 49C43.75 48.5625 43.75 47.9063 44.1875 47.4688C44.625 47.0313 45.2812 47.0313 45.7187 47.4688L56.4375 58.4063C56.875 58.8438 56.875 59.5 56.4375 59.9375C56.2187 59.9375 56 60.1563 55.7812 60.1563ZM58.8437 57.0938C58.625 57.0938 58.1875 57.0938 57.9687 56.875L47.25 45.9375C46.8125 45.5 46.8125 44.8438 47.25 44.4062C47.6875 43.9688 48.3437 43.9688 48.7812 44.4062L59.5 55.3438C59.9375 55.7812 59.9375 56.4375 59.5 56.875C59.2812 56.875 59.0625 57.0938 58.8437 57.0938Z" fill="white"/>
<path d="M55.7812 64.5312C54.4688 64.5312 52.9375 64.0937 51.8438 63L37.8437 49C37.625 48.7812 37.625 48.5625 37.625 48.125C37.625 47.6875 37.8437 47.4688 37.8437 47.25L47.0312 38.0625C47.4688 37.625 48.125 37.625 48.5625 38.0625L62.5625 52.0625C63.6562 53.1562 64.0937 54.4688 64.0937 56C64.0937 57.5312 63.4375 58.8437 62.5625 59.9375L59.5 63C58.625 63.875 57.0938 64.5312 55.7812 64.5312ZM40.25 48.125L53.375 61.25C54.6875 62.5625 56.6562 62.5625 57.9688 61.25L61.0312 58.1875C61.6875 57.5312 61.9062 56.6562 61.9062 55.7812C61.9062 54.9062 61.4688 54.0312 61.0312 53.375L47.9062 40.25L40.25 48.125ZM35.6562 40.0312C35.4375 40.0312 35 40.0313 34.7812 39.8125L13.125 17.9375C12.6875 17.7188 12.6875 16.8438 13.125 16.4063L16.1875 13.3438C16.625 12.9063 17.2813 12.9063 17.7188 13.3438L39.375 35C39.8125 35.4375 39.8125 36.0938 39.375 36.5313L36.3125 39.5938C36.0938 39.8125 35.875 40.0312 35.6562 40.0312ZM15.5312 17.2813L35.6562 37.4063L37.1875 35.875L17.0625 15.75L15.5312 17.2813Z" fill="white"/>
<path d="M19.6875 65.1875C19.4688 65.1875 19.0313 65.1875 18.8125 64.9688L15.75 61.9062C15.3125 61.4688 15.3125 60.8125 15.75 60.375L21.6562 54.6875L20.3438 49.875L15.3125 48.3438L9.625 54.0313C9.1875 54.4688 8.53125 54.4688 8.09375 54.0313L5.03125 50.9688C4.8125 50.75 4.8125 50.5312 4.8125 50.0938C4.8125 49.6562 5.03125 49.4375 5.03125 49.2188L13.125 41.3438C13.3438 41.125 13.7812 40.9062 14.2188 41.125L20.7812 42.875L30.1875 33.4688C30.625 33.0313 31.2812 33.0313 31.7188 33.4688L35.6562 37.4062L37.1875 35.875L33.25 31.9375C32.8125 31.5 32.8125 30.8438 33.25 30.4062L42.875 20.7812L41.125 14.2188C41.125 13.7812 41.125 13.3438 41.3437 13.125L49.4375 5.03125C49.875 4.59375 50.5312 4.59375 50.9687 5.03125L54.0312 8.09375C54.4688 8.53125 54.4688 9.1875 54.0312 9.625L48.3438 15.3125L49.6562 20.125L54.6875 21.6562L60.375 15.9688C60.8125 15.5312 61.4687 15.5312 61.9062 15.9688L64.9688 19.0312C65.1875 19.25 65.1875 19.4688 65.1875 19.9063C65.1875 20.3438 64.9688 20.5625 64.9688 20.7812L56.875 28.6563C56.6562 28.875 56.2188 29.0938 55.7812 28.875L49.2188 27.125L27.125 49L28.875 55.5625C28.875 56 28.875 56.4375 28.6563 56.6562L20.5625 64.75C20.3438 65.1875 20.125 65.1875 19.6875 65.1875ZM18.1563 61.0312L19.6875 62.5625L26.6875 55.5625L24.9375 49C24.9375 48.5625 24.9375 48.125 25.1562 47.9062L34.125 38.9375L31.0625 35.875L22.0938 44.8438C21.875 45.0625 21.4375 45.2812 21 45.0625L14.4375 43.3125L7.4375 50.3125L8.96875 51.8438L14.2188 46.5938C14.4375 46.375 14.875 46.1563 15.3125 46.375L21.4375 47.9062C21.875 47.9062 22.0938 48.3438 22.3125 48.7812L23.8438 54.9062C23.8438 55.3438 23.8438 55.7812 23.625 56L18.1563 61.0312ZM35.6562 31.2813L38.7188 34.3438L47.9062 25.1562C48.125 24.9375 48.5625 24.7188 49 24.9375L55.5625 26.6875L62.5625 19.6875L61.0312 18.1562L55.7812 23.4062C55.5625 23.625 55.125 23.8438 54.6875 23.625L48.5625 22.0938C48.125 22.0938 47.9062 21.6562 47.6875 21.2188L46.1562 15.3125C46.1562 14.875 46.1562 14.4375 46.375 14.2188L51.625 8.96875L50.3125 7.4375L43.3125 14.4375L45.0625 21C45.0625 21.4375 45.0625 21.875 44.8438 22.0938L35.6562 31.2813ZM12.4687 19.0312C11.5937 19.0312 10.7187 18.8125 10.0625 18.1562L5.46875 13.3438C5.25 13.125 5.25 12.9063 5.25 12.6875C5.25 12.4688 5.46875 12.0313 5.46875 11.8125L11.5938 5.6875C11.8125 5.46875 12.0312 5.46875 12.4687 5.46875C12.6875 5.46875 13.125 5.6875 13.3438 5.6875L17.9375 10.2812C18.375 10.9375 18.8125 11.8125 18.8125 12.6875C18.8125 13.5625 18.375 14.4375 17.9375 15.0938L14.6562 17.9375C14.2188 18.5937 13.3437 19.0312 12.4687 19.0312ZM7.875 12.6875L11.8125 16.625C12.25 17.0625 12.9062 17.0625 13.3438 16.625L16.4062 13.5625C16.4062 13.125 16.625 12.9063 16.625 12.6875C16.625 12.4688 16.4062 12.0313 16.4062 11.8125L12.4687 8.09375L7.875 12.6875Z" fill="white"/>
<path d="M38.7188 49.2188C38.5 49.2188 38.0625 49.2187 37.8437 49C37.4062 48.5625 37.4062 47.9063 37.8437 47.4688C38.0625 47.25 38.0625 47.0312 38.0625 46.8125C38.0625 46.5937 37.8437 46.1562 37.8437 45.9375C37.4062 45.5 36.75 45.5 36.3125 45.9375C35.875 46.375 35.2187 46.375 34.7812 45.9375C34.5625 45.7188 34.5625 45.5 34.5625 45.0625C34.5625 44.625 34.5625 44.4063 34.7812 44.1875L43.9688 35C44.4062 34.5625 45.0625 34.5625 45.5 35C45.7187 35.2188 45.7187 35.4375 45.7187 35.875C45.7187 36.3125 45.7187 36.5312 45.5 36.75C45.0625 37.1875 45.0625 37.8438 45.5 38.2812C45.9375 38.7188 46.5938 38.7188 47.0312 38.2812C47.4688 37.8438 48.125 37.8438 48.5625 38.2812C49 38.7188 49 39.375 48.5625 39.8125L39.375 49C39.375 49.2187 38.9375 49.2188 38.7188 49.2188ZM38.5 43.75C38.7188 43.9688 39.1562 44.1875 39.375 44.4062C39.5937 44.625 39.8125 45.0625 40.0312 45.2813L44.8438 40.4688C44.625 40.25 44.1875 40.0313 43.9688 39.8125C43.75 39.5938 43.5312 39.1562 43.3125 38.9375L38.5 43.75Z" fill="white"/>
<path d="M35.6562 46.1563C35.4375 46.1563 35 46.1563 34.7812 45.9375L31.7188 42.875C31.2813 42.4375 31.2813 41.7812 31.7188 41.3438L40.9063 32.1562C41.3438 31.7188 42 31.7188 42.4375 32.1562L45.5 35.2188C45.9375 35.6563 45.9375 36.3125 45.5 36.75L36.3125 45.9375C36.0938 46.1563 35.875 46.1563 35.6562 46.1563ZM34.125 42L35.6562 43.5312L43.3125 35.875L41.7813 34.3438L34.125 42Z" fill="white"/>
</svg>
